<svg id="icon" height="512" viewBox="0 0 128 128" width="512" xmlns="http://www.w3.org/2000/svg"><g fill="#eeefee"><path d="m100.47 51.819a51.637 51.637 0 0 0 -72.94 0l-5.03-5.03a58.755 58.755 0 0 1 83 0z"/><path d="m87.894 64.395a33.832 33.832 0 0 0 -47.789 0l-5.03-5.03a40.951 40.951 0 0 1 57.849 0z"/><path d="m75.319 76.971a16.027 16.027 0 0 0 -22.637 0l-5.03-5.03a23.145 23.145 0 0 1 32.7 0z"/></g><path d="m61.783 81.03h4.435v18.483h-4.435z" fill="#ef5261" transform="matrix(.707 -.707 .707 .707 -45.086 71.695)"/><path d="m54.759 88.053h18.483v4.435h-18.483z" fill="#ef5261" transform="matrix(.707 -.707 .707 .707 -45.086 71.695)"/></svg>